<?xml version="1.0" encoding="UTF-8"?>
<svg version="1.1" xmlns="http://www.w3.org/2000/svg" width="288" height="288">
<path d="M0 0 C14.85 0 29.7 0 45 0 C45 2.97 45 5.94 45 9 C50.94 9 56.88 9 63 9 C63 11.97 63 14.94 63 18 C65.97 18 68.94 18 72 18 C72 20.97 72 23.94 72 27 C74.97 27 77.94 27 81 27 C81 32.94 81 38.88 81 45 C83.97 45 86.94 45 90 45 C90 50.94 90 56.88 90 63 C92.97 63 95.94 63 99 63 C99 74.88 99 86.76 99 99 C96.03 99 93.06 99 90 99 C90 107.91 90 116.82 90 126 C87.03 126 84.06 126 81 126 C81 137.88 81 149.76 81 162 C78.03 162 75.06 162 72 162 C72 167.94 72 173.88 72 180 C69.03 180 66.06 180 63 180 C63 182.97 63 185.94 63 189 C60.03 189 57.06 189 54 189 C54 194.94 54 200.88 54 207 C59.94 207 65.88 207 72 207 C72 209.97 72 212.94 72 216 C74.97 216 77.94 216 81 216 C81 218.97 81 221.94 81 225 C86.94 225 92.88 225 99 225 C99 227.97 99 230.94 99 234 C101.97 234 104.94 234 108 234 C108 236.97 108 239.94 108 243 C110.97 243 113.94 243 117 243 C117 245.97 117 248.94 117 252 C119.97 252 122.94 252 126 252 C126 257.94 126 263.88 126 270 C99.27 270 72.54 270 45 270 C45 267.03 45 264.06 45 261 C47.97 261 50.94 261 54 261 C54 255.06 54 249.12 54 243 C51.03 243 48.06 243 45 243 C45 245.97 45 248.94 45 252 C42.03 252 39.06 252 36 252 C36 254.97 36 257.94 36 261 C30.06 261 24.12 261 18 261 C18 258.03 18 255.06 18 252 C15.03 252 12.06 252 9 252 C9 257.94 9 263.88 9 270 C-29.61 270 -68.22 270 -108 270 C-108 258.12 -108 246.24 -108 234 C-105.03 234 -102.06 234 -99 234 C-99 231.03 -99 228.06 -99 225 C-96.03 225 -93.06 225 -90 225 C-90 222.03 -90 219.06 -90 216 C-87.03 216 -84.06 216 -81 216 C-81 213.03 -81 210.06 -81 207 C-75.06 207 -69.12 207 -63 207 C-63 204.03 -63 201.06 -63 198 C-57.06 198 -51.12 198 -45 198 C-45 195.03 -45 192.06 -45 189 C-42.03 189 -39.06 189 -36 189 C-36 186.03 -36 183.06 -36 180 C-33.03 180 -30.06 180 -27 180 C-27 174.06 -27 168.12 -27 162 C-29.97 162 -32.94 162 -36 162 C-36 159.03 -36 156.06 -36 153 C-38.97 153 -41.94 153 -45 153 C-45 150.03 -45 147.06 -45 144 C-47.97 144 -50.94 144 -54 144 C-54 141.03 -54 138.06 -54 135 C-56.97 135 -59.94 135 -63 135 C-63 126.09 -63 117.18 -63 108 C-60.03 108 -57.06 108 -54 108 C-54 102.06 -54 96.12 -54 90 C-56.97 90 -59.94 90 -63 90 C-63 78.12 -63 66.24 -63 54 C-60.03 54 -57.06 54 -54 54 C-54 48.06 -54 42.12 -54 36 C-51.03 36 -48.06 36 -45 36 C-45 30.06 -45 24.12 -45 18 C-39.06 18 -33.12 18 -27 18 C-27 15.03 -27 12.06 -27 9 C-18.09 9 -9.18 9 0 9 C0 6.03 0 3.06 0 0 Z M-36 216 C-36 218.97 -36 221.94 -36 225 C-33.03 225 -30.06 225 -27 225 C-27 222.03 -27 219.06 -27 216 C-29.97 216 -32.94 216 -36 216 Z " fill="#D8B28D" transform="translate(117,18)"/>
<path d="M0 0 C14.85 0 29.7 0 45 0 C45 2.97 45 5.94 45 9 C50.94 9 56.88 9 63 9 C63 11.97 63 14.94 63 18 C65.97 18 68.94 18 72 18 C72 20.97 72 23.94 72 27 C74.97 27 77.94 27 81 27 C81 32.94 81 38.88 81 45 C83.97 45 86.94 45 90 45 C90 50.94 90 56.88 90 63 C92.97 63 95.94 63 99 63 C99 74.88 99 86.76 99 99 C96.03 99 93.06 99 90 99 C90 107.91 90 116.82 90 126 C87.03 126 84.06 126 81 126 C81 137.88 81 149.76 81 162 C78.03 162 75.06 162 72 162 C72 153.09 72 144.18 72 135 C66.06 135 60.12 135 54 135 C54 132.03 54 129.06 54 126 C51.03 126 48.06 126 45 126 C45 123.03 45 120.06 45 117 C39.06 117 33.12 117 27 117 C27 119.97 27 122.94 27 126 C24.03 126 21.06 126 18 126 C18 120.06 18 114.12 18 108 C15.36 108 12.72 108 10 108 C10 110.97 10 113.94 10 117 C9.67 117 9.34 117 9 117 C9 114.03 9 111.06 9 108 C6.03 108 3.06 108 0 108 C0 105.03 0 102.06 0 99 C8.91 99 17.82 99 27 99 C27 101.97 27 104.94 27 108 C35.91 108 44.82 108 54 108 C54 105.03 54 102.06 54 99 C62.91 99 71.82 99 81 99 C81 96.03 81 93.06 81 90 C78.03 90 75.06 90 72 90 C72 87.03 72 84.06 72 81 C69.03 81 66.06 81 63 81 C63 78.03 63 75.06 63 72 C60.03 72 57.06 72 54 72 C54 69.03 54 66.06 54 63 C51.03 63 48.06 63 45 63 C45 65.97 45 68.94 45 72 C36.09 72 27.18 72 18 72 C18 74.97 18 77.94 18 81 C12.06 81 6.12 81 0 81 C0 83.97 0 86.94 0 90 C-2.97 90 -5.94 90 -9 90 C-9 87.03 -9 84.06 -9 81 C-11.97 81 -14.94 81 -18 81 C-18 89.91 -18 98.82 -18 108 C-20.97 108 -23.94 108 -27 108 C-27 110.97 -27 113.94 -27 117 C-21.06 117 -15.12 117 -9 117 C-9 119.97 -9 122.94 -9 126 C-14.94 126 -20.88 126 -27 126 C-27 128.97 -27 131.94 -27 135 C-29.97 135 -32.94 135 -36 135 C-36 129.06 -36 123.12 -36 117 C-38.97 117 -41.94 117 -45 117 C-45 111.06 -45 105.12 -45 99 C-47.97 99 -50.94 99 -54 99 C-54 96.03 -54 93.06 -54 90 C-56.97 90 -59.94 90 -63 90 C-63 78.12 -63 66.24 -63 54 C-60.03 54 -57.06 54 -54 54 C-54 48.06 -54 42.12 -54 36 C-51.03 36 -48.06 36 -45 36 C-45 30.06 -45 24.12 -45 18 C-39.06 18 -33.12 18 -27 18 C-27 15.03 -27 12.06 -27 9 C-18.09 9 -9.18 9 0 9 C0 6.03 0 3.06 0 0 Z " fill="#010102" transform="translate(117,18)"/>
<path d="M0 0 C2.97 0 5.94 0 9 0 C9 17.82 9 35.64 9 54 C6.03 54 3.06 54 0 54 C0 51.03 0 48.06 0 45 C-2.97 45 -5.94 45 -9 45 C-9 50.94 -9 56.88 -9 63 C-6.03 63 -3.06 63 0 63 C0 65.97 0 68.94 0 72 C2.97 72 5.94 72 9 72 C9 77.94 9 83.88 9 90 C11.97 90 14.94 90 18 90 C18 92.97 18 95.94 18 99 C-14.67 99 -47.34 99 -81 99 C-81 87.12 -81 75.24 -81 63 C-78.03 63 -75.06 63 -72 63 C-72 60.03 -72 57.06 -72 54 C-69.03 54 -66.06 54 -63 54 C-63 51.03 -63 48.06 -63 45 C-60.03 45 -57.06 45 -54 45 C-54 42.03 -54 39.06 -54 36 C-48.06 36 -42.12 36 -36 36 C-36 33.03 -36 30.06 -36 27 C-30.06 27 -24.12 27 -18 27 C-18 24.03 -18 21.06 -18 18 C-15.03 18 -12.06 18 -9 18 C-9 15.03 -9 12.06 -9 9 C-6.03 9 -3.06 9 0 9 C0 6.03 0 3.06 0 0 Z " fill="#241F5E" transform="translate(90,189)"/>
<path d="M0 0 C2.97 0 5.94 0 9 0 C9 5.94 9 11.88 9 18 C14.94 18 20.88 18 27 18 C27 20.97 27 23.94 27 27 C29.97 27 32.94 27 36 27 C36 29.97 36 32.94 36 36 C41.94 36 47.88 36 54 36 C54 38.97 54 41.94 54 45 C56.97 45 59.94 45 63 45 C63 47.97 63 50.94 63 54 C65.97 54 68.94 54 72 54 C72 56.97 72 59.94 72 63 C74.97 63 77.94 63 81 63 C81 68.94 81 74.88 81 81 C54.27 81 27.54 81 0 81 C0 78.03 0 75.06 0 72 C2.97 72 5.94 72 9 72 C9 66.06 9 60.12 9 54 C6.03 54 3.06 54 0 54 C0 36.18 0 18.36 0 0 Z " fill="#22203C" transform="translate(162,207)"/>
<path d="M0 0 C2.97 0 5.94 0 9 0 C9 2.97 9 5.94 9 9 C11.97 9 14.94 9 18 9 C18 11.97 18 14.94 18 18 C20.97 18 23.94 18 27 18 C27 20.97 27 23.94 27 27 C29.97 27 32.94 27 36 27 C36 29.97 36 32.94 36 36 C27.09 36 18.18 36 9 36 C9 38.97 9 41.94 9 45 C0.09 45 -8.82 45 -18 45 C-18 42.03 -18 39.06 -18 36 C-26.91 36 -35.82 36 -45 36 C-45 38.97 -45 41.94 -45 45 C-39.06 45 -33.12 45 -27 45 C-27 53.91 -27 62.82 -27 72 C-35.91 72 -44.82 72 -54 72 C-54 66.06 -54 60.12 -54 54 C-59.94 54 -65.88 54 -72 54 C-72 51.03 -72 48.06 -72 45 C-69.03 45 -66.06 45 -63 45 C-63 36.09 -63 27.18 -63 18 C-60.03 18 -57.06 18 -54 18 C-54 20.97 -54 23.94 -54 27 C-51.03 27 -48.06 27 -45 27 C-45 24.03 -45 21.06 -45 18 C-39.06 18 -33.12 18 -27 18 C-27 15.03 -27 12.06 -27 9 C-18.09 9 -9.18 9 0 9 C0 6.03 0 3.06 0 0 Z " fill="#D8B28D" transform="translate(162,81)"/>
<path d="M0 0 C2.97 0 5.94 0 9 0 C9 17.82 9 35.64 9 54 C6.03 54 3.06 54 0 54 C0 51.03 0 48.06 0 45 C-2.97 45 -5.94 45 -9 45 C-9 50.94 -9 56.88 -9 63 C-6.03 63 -3.06 63 0 63 C0 65.97 0 68.94 0 72 C2.97 72 5.94 72 9 72 C9 77.94 9 83.88 9 90 C11.97 90 14.94 90 18 90 C18 92.97 18 95.94 18 99 C6.12 99 -5.76 99 -18 99 C-18 96.03 -18 93.06 -18 90 C-12.06 90 -6.12 90 0 90 C0 87.03 0 84.06 0 81 C-2.97 81 -5.94 81 -9 81 C-9 78.03 -9 75.06 -9 72 C-11.97 72 -14.94 72 -18 72 C-18 60.12 -18 48.24 -18 36 C-23.94 36 -29.88 36 -36 36 C-36 33.03 -36 30.06 -36 27 C-30.06 27 -24.12 27 -18 27 C-18 24.03 -18 21.06 -18 18 C-15.03 18 -12.06 18 -9 18 C-9 15.03 -9 12.06 -9 9 C-6.03 9 -3.06 9 0 9 C0 6.03 0 3.06 0 0 Z " fill="#231F52" transform="translate(90,189)"/>
<path d="M0 0 C8.91 0 17.82 0 27 0 C27 2.97 27 5.94 27 9 C44.82 9 62.64 9 81 9 C81 26.82 81 44.64 81 63 C78.03 63 75.06 63 72 63 C72 54.09 72 45.18 72 36 C66.06 36 60.12 36 54 36 C54 33.03 54 30.06 54 27 C51.03 27 48.06 27 45 27 C45 24.03 45 21.06 45 18 C39.06 18 33.12 18 27 18 C27 20.97 27 23.94 27 27 C24.03 27 21.06 27 18 27 C18 21.06 18 15.12 18 9 C15.36 9 12.72 9 10 9 C10 11.97 10 14.94 10 18 C9.67 18 9.34 18 9 18 C9 15.03 9 12.06 9 9 C6.03 9 3.06 9 0 9 C0 6.03 0 3.06 0 0 Z " fill="#A48669" transform="translate(117,117)"/>
<path d="M0 0 C5.94 0 11.88 0 18 0 C18 2.97 18 5.94 18 9 C15.03 9 12.06 9 9 9 C9 14.94 9 20.88 9 27 C6.03 27 3.06 27 0 27 C0 38.88 0 50.76 0 63 C-2.97 63 -5.94 63 -9 63 C-9 60.03 -9 57.06 -9 54 C-17.91 54 -26.82 54 -36 54 C-36 51.03 -36 48.06 -36 45 C-33.03 45 -30.06 45 -27 45 C-27 39.06 -27 33.12 -27 27 C-24.03 27 -21.06 27 -18 27 C-18 21.06 -18 15.12 -18 9 C-12.06 9 -6.12 9 0 9 C0 6.03 0 3.06 0 0 Z " fill="#0A0A0D" transform="translate(90,27)"/>
<path d="M0 0 C2.97 0 5.94 0 9 0 C9 5.94 9 11.88 9 18 C11.97 18 14.94 18 18 18 C18 26.91 18 35.82 18 45 C20.97 45 23.94 45 27 45 C27 50.94 27 56.88 27 63 C24.03 63 21.06 63 18 63 C18 60.03 18 57.06 18 54 C15.03 54 12.06 54 9 54 C9 51.03 9 48.06 9 45 C6.03 45 3.06 45 0 45 C0 42.03 0 39.06 0 36 C-2.97 36 -5.94 36 -9 36 C-9 27.09 -9 18.18 -9 9 C-6.03 9 -3.06 9 0 9 C0 6.03 0 3.06 0 0 Z " fill="#9C7E61" transform="translate(63,117)"/>
<path d="M0 0 C5.94 0 11.88 0 18 0 C18 5.94 18 11.88 18 18 C15.03 18 12.06 18 9 18 C9 23.94 9 29.88 9 36 C0.09 36 -8.82 36 -18 36 C-18 38.97 -18 41.94 -18 45 C-20.97 45 -23.94 45 -27 45 C-27 39.06 -27 33.12 -27 27 C-24.03 27 -21.06 27 -18 27 C-18 24.03 -18 21.06 -18 18 C-15.03 18 -12.06 18 -9 18 C-9 15.03 -9 12.06 -9 9 C-6.03 9 -3.06 9 0 9 C0 6.03 0 3.06 0 0 Z " fill="#231F52" transform="translate(36,225)"/>
<path d="M0 0 C5.94 0 11.88 0 18 0 C18 2.97 18 5.94 18 9 C20.97 9 23.94 9 27 9 C27 11.97 27 14.94 27 18 C29.97 18 32.94 18 36 18 C36 20.97 36 23.94 36 27 C38.97 27 41.94 27 45 27 C45 32.94 45 38.88 45 45 C39.06 45 33.12 45 27 45 C27 42.03 27 39.06 27 36 C24.03 36 21.06 36 18 36 C18 30.06 18 24.12 18 18 C15.03 18 12.06 18 9 18 C9 15.03 9 12.06 9 9 C6.03 9 3.06 9 0 9 C0 6.03 0 3.06 0 0 Z " fill="#FFFFFF" transform="translate(81,243)"/>
<path d="M0 0 C14.85 0 29.7 0 45 0 C45 11.88 45 23.76 45 36 C42.03 36 39.06 36 36 36 C36 33.03 36 30.06 36 27 C33.03 27 30.06 27 27 27 C27 24.03 27 21.06 27 18 C24.03 18 21.06 18 18 18 C18 15.03 18 12.06 18 9 C12.06 9 6.12 9 0 9 C0 6.03 0 3.06 0 0 Z " fill="#A38568" transform="translate(117,207)"/>
<path d="M0 0 C2.97 0 5.94 0 9 0 C9 2.97 9 5.94 9 9 C11.97 9 14.94 9 18 9 C18 11.97 18 14.94 18 18 C20.97 18 23.94 18 27 18 C27 23.94 27 29.88 27 36 C29.97 36 32.94 36 36 36 C36 38.97 36 41.94 36 45 C24.12 45 12.24 45 0 45 C0 42.03 0 39.06 0 36 C5.94 36 11.88 36 18 36 C18 33.03 18 30.06 18 27 C15.03 27 12.06 27 9 27 C9 24.03 9 21.06 9 18 C6.03 18 3.06 18 0 18 C0 12.06 0 6.12 0 0 Z " fill="#131128" transform="translate(72,243)"/>
<path d="M0 0 C8.91 0 17.82 0 27 0 C27 2.97 27 5.94 27 9 C35.91 9 44.82 9 54 9 C54 14.94 54 20.88 54 27 C51.03 27 48.06 27 45 27 C45 24.03 45 21.06 45 18 C39.06 18 33.12 18 27 18 C27 20.97 27 23.94 27 27 C24.03 27 21.06 27 18 27 C18 21.06 18 15.12 18 9 C15.36 9 12.72 9 10 9 C10 11.97 10 14.94 10 18 C9.67 18 9.34 18 9 18 C9 15.03 9 12.06 9 9 C6.03 9 3.06 9 0 9 C0 6.03 0 3.06 0 0 Z " fill="#000000" transform="translate(117,117)"/>
<path d="M0 0 C5.94 0 11.88 0 18 0 C18 2.97 18 5.94 18 9 C20.97 9 23.94 9 27 9 C27 11.97 27 14.94 27 18 C29.97 18 32.94 18 36 18 C36 20.97 36 23.94 36 27 C38.97 27 41.94 27 45 27 C45 32.94 45 38.88 45 45 C42.03 45 39.06 45 36 45 C36 42.03 36 39.06 36 36 C33.03 36 30.06 36 27 36 C27 33.03 27 30.06 27 27 C24.03 27 21.06 27 18 27 C18 24.03 18 21.06 18 18 C15.03 18 12.06 18 9 18 C9 15.03 9 12.06 9 9 C6.03 9 3.06 9 0 9 C0 6.03 0 3.06 0 0 Z " fill="#000000" transform="translate(198,243)"/>
<path d="M0 0 C5.94 0 11.88 0 18 0 C18 8.91 18 17.82 18 27 C9.09 27 0.18 27 -9 27 C-9 21.06 -9 15.12 -9 9 C-6.03 9 -3.06 9 0 9 C0 6.03 0 3.06 0 0 Z " fill="#D9B28D" transform="translate(117,126)"/>
<path d="M0 0 C2.97 0 5.94 0 9 0 C9 5.94 9 11.88 9 18 C14.94 18 20.88 18 27 18 C27 20.97 27 23.94 27 27 C29.97 27 32.94 27 36 27 C36 29.97 36 32.94 36 36 C30.06 36 24.12 36 18 36 C18 33.03 18 30.06 18 27 C12.39 27 6.78 27 1 27 C1 35.91 1 44.82 1 54 C0.67 54 0.34 54 0 54 C0 36.18 0 18.36 0 0 Z " fill="#000001" transform="translate(162,207)"/>
<path d="M0 0 C2.64 0 5.28 0 8 0 C8 2.97 8 5.94 8 9 C10.97 9 13.94 9 17 9 C17 20.88 17 32.76 17 45 C11.06 45 5.12 45 -1 45 C-1 42.03 -1 39.06 -1 36 C1.97 36 4.94 36 8 36 C8 30.06 8 24.12 8 18 C5.36 18 2.72 18 0 18 C0 12.06 0 6.12 0 0 Z " fill="#15132F" transform="translate(163,243)"/>
<path d="M0 0 C5.94 0 11.88 0 18 0 C18 2.97 18 5.94 18 9 C23.94 9 29.88 9 36 9 C36 11.97 36 14.94 36 18 C24.12 18 12.24 18 0 18 C0 12.06 0 6.12 0 0 Z " fill="#25205F" transform="translate(180,270)"/>
<path d="M0 0 C2.97 0 5.94 0 9 0 C9 5.94 9 11.88 9 18 C6.03 18 3.06 18 0 18 C0 20.97 0 23.94 0 27 C-2.97 27 -5.94 27 -9 27 C-9 29.97 -9 32.94 -9 36 C-11.97 36 -14.94 36 -18 36 C-18 30.06 -18 24.12 -18 18 C-15.03 18 -12.06 18 -9 18 C-9 15.03 -9 12.06 -9 9 C-6.03 9 -3.06 9 0 9 C0 6.03 0 3.06 0 0 Z " fill="#15132F" transform="translate(27,234)"/>
<path d="M0 0 C2.97 0 5.94 0 9 0 C9 17.82 9 35.64 9 54 C6.03 54 3.06 54 0 54 C0 36.18 0 18.36 0 0 Z " fill="#49311C" transform="translate(90,189)"/>
<path d="M0 0 C8.91 0 17.82 0 27 0 C27 5.94 27 11.88 27 18 C18.09 18 9.18 18 0 18 C0 12.06 0 6.12 0 0 Z " fill="#D9B28D" transform="translate(171,126)"/>
<path d="M0 0 C2.97 0 5.94 0 9 0 C9 8.91 9 17.82 9 27 C6.03 27 3.06 27 0 27 C0 24.03 0 21.06 0 18 C-2.97 18 -5.94 18 -9 18 C-9 15.03 -9 12.06 -9 9 C-6.03 9 -3.06 9 0 9 C0 6.03 0 3.06 0 0 Z " fill="#A48669" transform="translate(63,117)"/>
<path d="M0 0 C8.91 0 17.82 0 27 0 C27 2.97 27 5.94 27 9 C18.09 9 9.18 9 0 9 C0 6.03 0 3.06 0 0 Z " fill="#25205F" transform="translate(63,270)"/>
<path d="M0 0 C2.97 0 5.94 0 9 0 C9 5.94 9 11.88 9 18 C3.06 18 -2.88 18 -9 18 C-9 15.03 -9 12.06 -9 9 C-6.03 9 -3.06 9 0 9 C0 6.03 0 3.06 0 0 Z " fill="#15132F" transform="translate(81,198)"/>
<path d="M0 0 C8.91 0 17.82 0 27 0 C27 2.97 27 5.94 27 9 C18.09 9 9.18 9 0 9 C0 6.03 0 3.06 0 0 Z " fill="#000000" transform="translate(171,144)"/>
<path d="M0 0 C8.91 0 17.82 0 27 0 C27 2.97 27 5.94 27 9 C18.09 9 9.18 9 0 9 C0 6.03 0 3.06 0 0 Z " fill="#000000" transform="translate(108,144)"/>
<path d="M0 0 C5.61 0 11.22 0 17 0 C17 5.94 17 11.88 17 18 C14.03 18 11.06 18 8 18 C8 15.03 8 12.06 8 9 C5.36 9 2.72 9 0 9 C0 6.03 0 3.06 0 0 Z " fill="#A48669" transform="translate(181,126)"/>
<path d="M0 0 C5.94 0 11.88 0 18 0 C18 2.97 18 5.94 18 9 C12.06 9 6.12 9 0 9 C0 6.03 0 3.06 0 0 Z " fill="#231F52" transform="translate(9,279)"/>
<path d="M0 0 C5.94 0 11.88 0 18 0 C18 2.97 18 5.94 18 9 C12.06 9 6.12 9 0 9 C0 6.03 0 3.06 0 0 Z " fill="#CBA784" transform="translate(117,216)"/>
<path d="M0 0 C5.94 0 11.88 0 18 0 C18 2.97 18 5.94 18 9 C12.06 9 6.12 9 0 9 C0 6.03 0 3.06 0 0 Z " fill="#15132F" transform="translate(54,216)"/>
<path d="M0 0 C5.94 0 11.88 0 18 0 C18 2.97 18 5.94 18 9 C12.06 9 6.12 9 0 9 C0 6.03 0 3.06 0 0 Z " fill="#6D5844" transform="translate(144,207)"/>
<path d="M0 0 C2.97 0 5.94 0 9 0 C9 5.94 9 11.88 9 18 C6.03 18 3.06 18 0 18 C0 12.06 0 6.12 0 0 Z " fill="#A38568" transform="translate(180,180)"/>
<path d="M0 0 C5.94 0 11.88 0 18 0 C18 2.97 18 5.94 18 9 C12.06 9 6.12 9 0 9 C0 6.03 0 3.06 0 0 Z " fill="#6B5642" transform="translate(144,171)"/>
<path d="M0 0 C2.97 0 5.94 0 9 0 C9 5.94 9 11.88 9 18 C6.03 18 3.06 18 0 18 C0 12.06 0 6.12 0 0 Z " fill="#A48669" transform="translate(99,99)"/>
<path d="M0 0 C2.64 0 5.28 0 8 0 C8 5.94 8 11.88 8 18 C5.03 18 2.06 18 -1 18 C-1.09706112 11.88514973 -0.77040851 6.06696699 0 0 Z " fill="#A58769" transform="translate(127,126)"/>
<path d="M0 0 C2.97 0 5.94 0 9 0 C9 2.97 9 5.94 9 9 C6.03 9 3.06 9 0 9 C0 6.03 0 3.06 0 0 Z " fill="#121123" transform="translate(162,279)"/>
<path d="M0 0 C2.97 0 5.94 0 9 0 C9 2.97 9 5.94 9 9 C6.03 9 3.06 9 0 9 C0 6.03 0 3.06 0 0 Z " fill="#15132F" transform="translate(9,279)"/>
<path d="M0 0 C2.97 0 5.94 0 9 0 C9 2.97 9 5.94 9 9 C6.03 9 3.06 9 0 9 C0 6.03 0 3.06 0 0 Z " fill="#111020" transform="translate(63,270)"/>
<path d="M0 0 C2.97 0 5.94 0 9 0 C9 2.97 9 5.94 9 9 C6.03 9 3.06 9 0 9 C0 6.03 0 3.06 0 0 Z " fill="#2B2848" transform="translate(72,270)"/>
<path d="M0 0 C2.97 0 5.94 0 9 0 C9 2.97 9 5.94 9 9 C6.03 9 3.06 9 0 9 C0 6.03 0 3.06 0 0 Z " fill="#CBA784" transform="translate(153,243)"/>
<path d="M0 0 C2.97 0 5.94 0 9 0 C9 2.97 9 5.94 9 9 C6.03 9 3.06 9 0 9 C0 6.03 0 3.06 0 0 Z " fill="#CBA784" transform="translate(144,234)"/>
<path d="M0 0 C2.97 0 5.94 0 9 0 C9 2.97 9 5.94 9 9 C6.03 9 3.06 9 0 9 C0 6.03 0 3.06 0 0 Z " fill="#CBA784" transform="translate(135,225)"/>
<path d="M0 0 C2.97 0 5.94 0 9 0 C9 2.97 9 5.94 9 9 C6.03 9 3.06 9 0 9 C0 6.03 0 3.06 0 0 Z " fill="#15132F" transform="translate(36,225)"/>
<path d="M0 0 C2.97 0 5.94 0 9 0 C9 2.97 9 5.94 9 9 C6.03 9 3.06 9 0 9 C0 6.03 0 3.06 0 0 Z " fill="#2B2849" transform="translate(72,216)"/>
<path d="M0 0 C2.97 0 5.94 0 9 0 C9 2.97 9 5.94 9 9 C6.03 9 3.06 9 0 9 C0 6.03 0 3.06 0 0 Z " fill="#6E5944" transform="translate(171,198)"/>
<path d="M0 0 C2.97 0 5.94 0 9 0 C9 2.97 9 5.94 9 9 C6.03 9 3.06 9 0 9 C0 6.03 0 3.06 0 0 Z " fill="#6E5944" transform="translate(81,171)"/>
<path d="M0 0 C2.97 0 5.94 0 9 0 C9 2.97 9 5.94 9 9 C6.03 9 3.06 9 0 9 C0 6.03 0 3.06 0 0 Z " fill="#A38568" transform="translate(81,162)"/>
<path d="M0 0 C2.97 0 5.94 0 9 0 C9 2.97 9 5.94 9 9 C6.03 9 3.06 9 0 9 C0 6.03 0 3.06 0 0 Z " fill="#6F5A45" transform="translate(72,162)"/>
<path d="M0 0 C2.97 0 5.94 0 9 0 C9 2.97 9 5.94 9 9 C6.03 9 3.06 9 0 9 C0 6.03 0 3.06 0 0 Z " fill="#B6926E" transform="translate(72,153)"/>
<path d="M0 0 C2.97 0 5.94 0 9 0 C9 2.97 9 5.94 9 9 C6.03 9 3.06 9 0 9 C0 6.03 0 3.06 0 0 Z " fill="#6F5A45" transform="translate(63,153)"/>
<path d="M0 0 C2.97 0 5.94 0 9 0 C9 2.97 9 5.94 9 9 C6.03 9 3.06 9 0 9 C0 6.03 0 3.06 0 0 Z " fill="#5A4837" transform="translate(153,144)"/>
<path d="M0 0 C2.97 0 5.94 0 9 0 C9 2.97 9 5.94 9 9 C6.03 9 3.06 9 0 9 C0 6.03 0 3.06 0 0 Z " fill="#B6926E" transform="translate(63,144)"/>
<path d="M0 0 C2.97 0 5.94 0 9 0 C9 2.97 9 5.94 9 9 C6.03 9 3.06 9 0 9 C0 6.03 0 3.06 0 0 Z " fill="#A48669" transform="translate(72,135)"/>
<path d="M0 0 C2.97 0 5.94 0 9 0 C9 2.97 9 5.94 9 9 C6.03 9 3.06 9 0 9 C0 6.03 0 3.06 0 0 Z " fill="#8E6F52" transform="translate(63,135)"/>
<path d="M0 0 C2.97 0 5.94 0 9 0 C9 2.97 9 5.94 9 9 C6.03 9 3.06 9 0 9 C0 6.03 0 3.06 0 0 Z " fill="#A5876A" transform="translate(90,126)"/>
<path d="M0 0 C2.97 0 5.94 0 9 0 C9 2.97 9 5.94 9 9 C6.03 9 3.06 9 0 9 C0 6.03 0 3.06 0 0 Z " fill="#FFFFFF" transform="translate(171,126)"/>
<path d="M0 0 C2.97 0 5.94 0 9 0 C9 2.97 9 5.94 9 9 C6.03 9 3.06 9 0 9 C0 6.03 0 3.06 0 0 Z " fill="#FFFFFF" transform="translate(117,126)"/>
<path d="M0 0 C2.97 0 5.94 0 9 0 C9 2.97 9 5.94 9 9 C6.03 9 3.06 9 0 9 C0 6.03 0 3.06 0 0 Z " fill="#000000" transform="translate(108,126)"/>
<path d="M0 0 C2.97 0 5.94 0 9 0 C9 2.97 9 5.94 9 9 C6.03 9 3.06 9 0 9 C0 6.03 0 3.06 0 0 Z " fill="#6E5944" transform="translate(54,126)"/>
<path d="M0 0 C2.97 0 5.94 0 9 0 C9 2.97 9 5.94 9 9 C6.03 9 3.06 9 0 9 C0 6.03 0 3.06 0 0 Z " fill="#705B46" transform="translate(63,117)"/>
<path d="M0 0 C2.97 0 5.94 0 9 0 C9 2.97 9 5.94 9 9 C6.03 9 3.06 9 0 9 C0 6.03 0 3.06 0 0 Z " fill="#A48669" transform="translate(180,99)"/>
<path d="M0 0 C2.97 0 5.94 0 9 0 C9 2.97 9 5.94 9 9 C6.03 9 3.06 9 0 9 C0 6.03 0 3.06 0 0 Z " fill="#A58769" transform="translate(108,90)"/>
<path d="M0 0 C2.97 0 5.94 0 9 0 C9 2.97 9 5.94 9 9 C6.03 9 3.06 9 0 9 C0 6.03 0 3.06 0 0 Z " fill="#A48669" transform="translate(162,81)"/>
<path d="M0 0 C2.97 0 5.94 0 9 0 C9 2.97 9 5.94 9 9 C6.03 9 3.06 9 0 9 C0 6.03 0 3.06 0 0 Z " fill="#A5876A" transform="translate(117,81)"/>
<path d="M0 0 C2.97 0 5.94 0 9 0 C9 2.97 9 5.94 9 9 C6.03 9 3.06 9 0 9 C0 6.03 0 3.06 0 0 Z " fill="#0A0A0D" transform="translate(126,63)"/>
<path d="M0 0 C2.97 0 5.94 0 9 0 C9 2.97 9 5.94 9 9 C6.03 9 3.06 9 0 9 C0 6.03 0 3.06 0 0 Z " fill="#0A0A0D" transform="translate(189,45)"/>
<path d="M0 0 C2.64 0 5.28 0 8 0 C8 2.97 8 5.94 8 9 C5.36 9 2.72 9 0 9 C0 6.03 0 3.06 0 0 Z " fill="#614E3C" transform="translate(181,126)"/>
<path d="M0 0 C2.64 0 5.28 0 8 0 C8 2.97 8 5.94 8 9 C5.36 9 2.72 9 0 9 C0 6.03 0 3.06 0 0 Z " fill="#63503D" transform="translate(127,126)"/>
<path d="M0 0 C2.64 0 5.28 0 8 0 C8 2.64 8 5.28 8 8 C5.36 8 2.72 8 0 8 C0 5.36 0 2.72 0 0 Z " fill="#4D3620" transform="translate(81,144)"/>
</svg>
