<svg width="36" height="36" viewBox="0 0 36 36" fill="none" xmlns="http://www.w3.org/2000/svg">
<path d="M7.47732 3.65625C5.42319 3.65625 3.90325 5.45411 3.97129 7.40391C4.03658 9.27713 3.95176 11.7032 3.34098 13.6816C2.72837 15.6659 1.69231 16.9229 0 17.0842V18.9062C1.69231 19.0676 2.72837 20.3246 3.34098 22.3088C3.95176 24.2873 4.03658 26.7133 3.97129 28.5866C3.90325 30.536 5.42319 32.3342 7.47763 32.3342H28.5254C30.5796 32.3342 32.0992 30.5364 32.0312 28.5866C31.9659 26.7133 32.0507 24.2873 32.6615 22.3088C33.2744 20.3246 34.3077 19.0676 36 18.9062V17.0842C34.3077 16.9229 33.2744 15.6659 32.6615 13.6816C32.0507 11.7035 31.9659 9.27713 32.0312 7.40391C32.0992 5.45442 30.5796 3.65625 28.5254 3.65625H7.47702H7.47732ZM24.4068 21.3094C24.4068 23.9941 22.4042 25.6224 19.0809 25.6224H13.4237C13.0867 25.6224 12.8136 25.3492 12.8136 25.0122V10.9783C12.8136 10.6413 13.0867 10.3681 13.4237 10.3681H19.0486C21.8197 10.3681 23.6383 11.8691 23.6383 14.1737C23.6383 15.7913 22.4149 17.2395 20.8562 17.4931V17.5776C22.9781 17.8104 24.4068 19.2796 24.4068 21.3094ZM18.464 12.3024H15.2384V16.8585H17.9552C20.0554 16.8585 21.2135 16.0128 21.2135 14.5011C21.2135 13.0846 20.2177 12.3024 18.464 12.3024ZM15.2384 18.6664V23.6875H18.5827C20.7693 23.6875 21.9277 22.8101 21.9277 21.1611C21.9277 19.5118 20.7369 18.6661 18.4421 18.6661H15.2384V18.6664Z" fill="#7E13F8"/>
<path d="M24.4067 21.3094C24.4067 23.9942 22.4041 25.6224 19.0808 25.6224H13.4236C13.0867 25.6224 12.8135 25.3492 12.8135 25.0122V10.9783C12.8135 10.6413 13.0867 10.3682 13.4236 10.3682H19.0485C21.8196 10.3682 23.6382 11.8692 23.6382 14.1738C23.6382 15.7914 22.4148 17.2396 20.8561 17.4931V17.5776C22.978 17.8104 24.4067 19.2797 24.4067 21.3094ZM18.464 12.3024H15.2383V16.8585H17.9551C20.0553 16.8585 21.2134 16.0128 21.2134 14.5011C21.2134 13.0846 20.2176 12.3024 18.464 12.3024ZM15.2383 18.6665V23.6876H18.5826C20.7692 23.6876 21.9276 22.8101 21.9276 21.1611C21.9276 19.5119 20.7368 18.6662 18.442 18.6662H15.2383V18.6665Z" fill="white"/>
</svg>
