<svg width="36" height="36" viewBox="0 0 36 36" fill="none" xmlns="http://www.w3.org/2000/svg">
<path fill-rule="evenodd" clip-rule="evenodd" d="M4.99826 32.4011L2.10938 0H33.8537L30.9617 32.3958L17.9623 36L4.99826 32.4011Z" fill="#0071BC"/>
<path fill-rule="evenodd" clip-rule="evenodd" d="M18.0078 33.2434L28.4989 30.3573L30.9569 2.69836H18.0078V33.2434Z" fill="#29ABE2"/>
<path fill-rule="evenodd" clip-rule="evenodd" d="M8.72168 14.6024L9.06968 18.5704L18.0078 14.6024V10.6279L8.72168 14.6024Z" fill="#B3B3B3"/>
<path fill-rule="evenodd" clip-rule="evenodd" d="M27.9071 6.38538L18.0078 10.6279V14.6024L27.5658 10.3534L27.9071 6.38538Z" fill="#E6E6E6"/>
<path fill-rule="evenodd" clip-rule="evenodd" d="M18.008 24.9847L17.9773 24.9893L13.5446 23.7989L13.255 20.6338H9.26562L9.82234 26.8692L17.9764 29.1269L18.008 29.1194V24.9847Z" fill="#E6E6E6"/>
<path fill-rule="evenodd" clip-rule="evenodd" d="M18.0078 14.6024V18.5705H22.8609L22.4198 23.7583L18.0078 24.9881V29.1226L26.1348 26.8648L27.205 14.6024H18.0078Z" fill="white"/>
<path fill-rule="evenodd" clip-rule="evenodd" d="M18.0078 14.6024H8.72168L9.06968 18.5705H18.0078V14.6024Z" fill="#E6E6E6"/>
<path fill-rule="evenodd" clip-rule="evenodd" d="M18.0083 10.3534V6.38538H17.968H8.0166L8.36873 10.3534H18.0083Z" fill="#E6E6E6"/>
<path fill-rule="evenodd" clip-rule="evenodd" d="M18.0078 6.38538V10.3037V10.3534H27.5658L27.9071 6.38538H18.0078Z" fill="white"/>
</svg>
