<svg width="29" height="28" viewBox="0 0 29 28" fill="none" xmlns="http://www.w3.org/2000/svg">
<path d="M9.86979 28C12.4458 28 14.5365 25.9093 14.5365 23.3333V18.6666H9.86979C7.29379 18.6666 5.20312 20.7573 5.20312 23.3333C5.20312 25.9093 7.29379 28 9.86979 28Z" fill="#0ACF83"/>
<path d="M5.20312 14C5.20312 11.424 7.29379 9.33337 9.86979 9.33337H14.5365V18.6667H9.86979C7.29379 18.6667 5.20312 16.576 5.20312 14Z" fill="#A259FF"/>
<path d="M5.20312 4.66667C5.20312 2.09067 7.29379 0 9.86979 0H14.5365V9.33333H9.86979C7.29379 9.33333 5.20312 7.24267 5.20312 4.66667Z" fill="#F24E1E"/>
<path d="M14.5361 0H19.2028C21.7788 0 23.8695 2.09067 23.8695 4.66667C23.8695 7.24267 21.7788 9.33333 19.2028 9.33333H14.5361V0Z" fill="#FF7262"/>
<path d="M23.8695 14C23.8695 16.576 21.7788 18.6667 19.2028 18.6667C16.6268 18.6667 14.5361 16.576 14.5361 14C14.5361 11.424 16.6268 9.33337 19.2028 9.33337C21.7788 9.33337 23.8695 11.424 23.8695 14Z" fill="#1ABCFE"/>
</svg>
