<svg width="29" height="28" viewBox="0 0 29 28" fill="none" xmlns="http://www.w3.org/2000/svg">
<path fill-rule="evenodd" clip-rule="evenodd" d="M27.9719 12.7527L15.7467 0.528122C15.0431 -0.176041 13.9012 -0.176041 13.1967 0.528122L10.6582 3.06673L13.8785 6.28708C14.6268 6.03423 15.4849 6.20382 16.0815 6.80046C16.6809 7.40078 16.8493 8.26623 16.5903 9.01709L19.6938 12.1207C20.4447 11.862 21.311 12.0294 21.9107 12.6301C22.7488 13.4679 22.7488 14.8258 21.9107 15.6642C21.0723 16.5027 19.7144 16.5027 18.8757 15.6642C18.2453 15.0332 18.0895 14.1072 18.4087 13.3306L15.5144 10.4362L15.5141 18.0529C15.7184 18.1543 15.9113 18.2892 16.0815 18.4588C16.9196 19.2966 16.9196 20.6545 16.0815 21.4936C15.2431 22.3317 13.8846 22.3317 13.0474 21.4936C12.2093 20.6545 12.2093 19.2966 13.0474 18.4588C13.2545 18.252 13.4941 18.0956 13.7497 17.9906V10.3028C13.4941 10.1984 13.2548 10.0429 13.0474 9.83462C12.4124 9.20051 12.2597 8.26869 12.5851 7.48895L9.41085 4.31407L1.02834 12.6961C0.323886 13.4009 0.323886 14.5429 1.02834 15.247L13.2536 27.4719C13.9574 28.176 15.099 28.176 15.8038 27.4719L27.9719 15.3039C28.676 14.5994 28.676 13.4568 27.9719 12.7527Z" fill="#DE4C36"/>
</svg>
