<svg width="29" height="28" viewBox="0 0 29 28" fill="none" xmlns="http://www.w3.org/2000/svg">
<path fill-rule="evenodd" clip-rule="evenodd" d="M14.5001 0.65625C6.95027 0.65625 0.828125 6.77727 0.828125 14.3282C0.828125 20.3689 4.74557 25.4937 10.1779 27.3015C10.8611 27.4281 11.112 27.005 11.112 26.6438C11.112 26.3178 11.0993 25.2408 11.0934 24.0984C7.28988 24.9255 6.48728 22.4853 6.48728 22.4853C5.86535 20.905 4.96925 20.4848 4.96925 20.4848C3.72879 19.6362 5.06276 19.6537 5.06276 19.6537C6.43566 19.7501 7.15856 21.0626 7.15856 21.0626C8.37797 23.1527 10.3569 22.5485 11.1371 22.1991C11.2598 21.3155 11.6142 20.7123 12.0052 20.3709C8.96842 20.0252 5.77615 18.8529 5.77615 13.6142C5.77615 12.1215 6.31023 10.9019 7.18482 9.94441C7.04287 9.60005 6.5749 8.20949 7.31727 6.32627C7.31727 6.32627 8.46536 5.95882 11.078 7.7277C12.1686 7.42478 13.3382 7.27286 14.5001 7.26765C15.662 7.27286 16.8325 7.42478 17.9251 7.7277C20.5346 5.95882 21.6811 6.32627 21.6811 6.32627C22.4253 8.20949 21.9571 9.60005 21.8152 9.94441C22.6918 10.9019 23.2223 12.1215 23.2223 13.6142C23.2223 18.8653 20.0239 20.0216 16.9794 20.3601C17.4698 20.7843 17.9068 21.6164 17.9068 22.8919C17.9068 24.7212 17.8909 26.1935 17.8909 26.6438C17.8909 27.0077 18.137 27.434 18.8301 27.2997C24.2594 25.4899 28.1719 20.3668 28.1719 14.3282C28.1719 6.77727 22.0506 0.65625 14.5001 0.65625ZM5.94873 20.1323C5.91862 20.2002 5.81176 20.2206 5.7144 20.1739C5.61524 20.1293 5.55954 20.0367 5.59169 19.9686C5.62112 19.8986 5.72821 19.8792 5.82715 19.926C5.92654 19.9706 5.98314 20.0641 5.94873 20.1323ZM6.62124 20.7324C6.55604 20.7928 6.42857 20.7647 6.34208 20.6692C6.25266 20.5739 6.2359 20.4464 6.30201 20.3851C6.36925 20.3246 6.49287 20.3529 6.58252 20.4482C6.67195 20.5447 6.68939 20.6712 6.62124 20.7324ZM7.08261 21.5001C6.99884 21.5583 6.86186 21.5037 6.77719 21.3822C6.69342 21.2606 6.69342 21.1148 6.779 21.0564C6.8639 20.998 6.99884 21.0505 7.08464 21.1712C7.16819 21.2948 7.16819 21.4406 7.08261 21.5001ZM7.86288 22.3893C7.78794 22.472 7.62832 22.4498 7.5115 22.337C7.39196 22.2268 7.35868 22.0703 7.43385 21.9877C7.50969 21.9048 7.67021 21.9281 7.78794 22.04C7.90657 22.15 7.9428 22.3076 7.86288 22.3893ZM8.8713 22.6895C8.83825 22.7966 8.68452 22.8453 8.52966 22.7998C8.37503 22.7529 8.27383 22.6275 8.30507 22.5192C8.33722 22.4115 8.49162 22.3608 8.64762 22.4094C8.80202 22.4561 8.90345 22.5806 8.8713 22.6895ZM10.0189 22.8168C10.0228 22.9296 9.89147 23.0231 9.72891 23.0251C9.56545 23.0287 9.43323 22.9375 9.43142 22.8266C9.43142 22.7127 9.55979 22.6201 9.72325 22.6174C9.88581 22.6142 10.0189 22.7048 10.0189 22.8168ZM11.1463 22.7736C11.1658 22.8836 11.0528 22.9966 10.8914 23.0267C10.7327 23.0557 10.5858 22.9878 10.5656 22.8787C10.5459 22.7659 10.6609 22.6529 10.8194 22.6237C10.9811 22.5957 11.1257 22.6618 11.1463 22.7736Z" fill="#161614"/>
</svg>
