<svg width="36" height="36" viewBox="0 0 36 36" fill="none" xmlns="http://www.w3.org/2000/svg">
<path fill-rule="evenodd" clip-rule="evenodd" d="M4.99818 32.4013L2.10938 0H33.8523L30.9605 32.3962L17.9614 36L4.99818 32.4013Z" fill="#E44D26"/>
<path fill-rule="evenodd" clip-rule="evenodd" d="M17.9805 33.2454L28.4843 30.3334L30.9556 2.64929H17.9805V33.2454Z" fill="#F16529"/>
<path d="M12.7227 14.6664H17.9812V18.6403H9.08843L8.0166 6.62317H17.9812V10.5971H12.3596L12.7227 14.6664Z" fill="#EBEBEB"/>
<path d="M17.9638 24.9917L17.9812 24.987V29.1215L17.9629 29.1266L9.82273 26.8668L9.26599 20.6273H13.2551L13.5381 23.7966L17.9638 24.9917Z" fill="#EBEBEB"/>
<path d="M17.9668 6.62317H27.9214L27.5656 10.5971H17.9668V6.62317Z" fill="white"/>
<path d="M17.9668 18.6403V14.6664H27.204L27.1071 15.7335L26.1135 26.8668L17.9668 29.1247V24.9904L22.3989 23.7941L22.8602 18.6403H17.9668Z" fill="white"/>
</svg>
