<svg width="36" height="36" viewBox="0 0 36 36" fill="none" xmlns="http://www.w3.org/2000/svg">
<g clip-path="url(#clip0_445_1405)">
<path d="M35.9842 23.0674C35.8808 22.2293 35.4561 21.5023 34.7186 20.9039C34.7094 20.8928 34.6993 20.8824 34.6883 20.873L34.6511 20.8463L34.6391 20.8378L34.2475 20.5566L34.2341 20.5467L34.1842 20.5116C34.1659 20.5009 34.1463 20.4926 34.1258 20.487C32.8869 19.7494 30.8359 19.2326 27.6979 20.34C26.949 19.08 26.864 18.0703 27.3653 16.5235C27.4546 16.2542 27.3716 16.0763 27.1044 15.961C26.5672 15.7324 25.8318 15.8492 25.31 15.987C25.0668 16.0502 24.9205 16.1881 24.8741 16.3969C24.5436 17.9438 23.5832 19.357 22.6543 20.7211L22.5995 20.8013C22.0272 19.5877 22.146 18.6476 22.5447 17.4699C22.6241 17.235 22.5615 17.0789 22.3415 16.9622C21.7269 16.6451 20.8051 16.8631 20.4381 16.9713C19.9726 17.107 19.4734 18.3649 18.9158 19.871C18.7752 20.25 18.6543 20.5742 18.5818 20.7253C18.4096 21.0769 18.2451 21.4777 18.0707 21.9031C17.6769 22.8656 17.2333 23.9492 16.599 24.6298C16.3684 24.12 16.7312 23.3163 17.0835 22.5366C17.5004 21.6148 17.8942 20.7436 17.4407 20.1874C17.369 20.0995 17.28 20.0272 17.1793 19.9749C17.0785 19.9227 16.9682 19.8917 16.855 19.8837C16.7073 19.8724 16.5591 19.8965 16.4225 19.954C16.4697 19.5567 16.4718 19.2431 16.3558 18.8642C16.1898 18.3235 15.7588 18.0204 15.1654 18.0366C13.814 18.0759 12.6707 19.0828 11.9486 19.921C11.4676 20.4835 10.4017 20.9124 9.46583 21.2885C9.09599 21.4453 8.74442 21.586 8.45122 21.7266C7.98364 21.3314 7.3895 20.9327 6.76372 20.5116C5.00591 19.3317 3.01395 17.9937 2.94505 16.1796C2.84661 13.5 5.89817 11.5995 8.56161 10.2431C10.5803 9.21658 12.3353 8.53595 13.9272 8.164C16.1631 7.64158 18.0517 7.74704 19.5395 8.47619C20.3537 8.87486 20.7348 9.74181 20.4929 10.6334C19.8601 12.9502 17.2382 14.5378 14.9959 15.2522C13.6452 15.6825 12.4956 15.8625 11.4803 15.8035C10.2076 15.7296 9.16841 15.0912 8.72403 14.8191C8.65284 14.7705 8.57755 14.7281 8.49903 14.6925L8.47864 14.6876C8.4384 14.6776 8.39618 14.6788 8.35662 14.6912C8.31705 14.7036 8.28167 14.7267 8.25435 14.7579C8.16294 14.8669 8.19528 15.0392 8.22833 15.1263C8.66075 16.2563 9.55372 16.9699 10.8819 17.2477C11.3166 17.3347 11.7591 17.3769 12.2024 17.3735C15.3109 17.3735 19.2772 15.5813 20.7341 14.1054C21.7276 13.0999 22.4511 12.0663 22.7507 10.2839C23.0636 8.41712 21.7979 7.11986 20.5084 6.5222C17.3746 5.07587 13.8154 5.64751 11.3811 6.38158C8.53349 7.24009 5.58739 8.80103 3.29942 10.6657C0.478486 12.9628 -0.541045 15.0954 0.267549 17.0114C1.09794 18.9752 3.12294 20.2036 5.08114 21.3919C5.71395 21.7751 6.31583 22.14 6.85794 22.5169C6.69481 22.5963 6.52817 22.6772 6.35872 22.7581C4.71481 23.5547 2.85013 24.4512 1.81583 25.9327C1.06489 27.012 0.924267 28.0863 1.39817 29.1263C1.6513 29.6796 2.1013 30.0551 2.72638 30.2421C3.05154 30.3342 3.38828 30.379 3.72622 30.375C4.94333 30.375 6.28278 29.8828 7.01192 29.4279C8.30005 28.6193 9.13466 27.5337 9.49325 26.2013C9.81247 25.0158 9.73583 23.8381 9.27177 22.7869L10.8503 21.991C10.0888 24.5222 10.6724 26.0339 11.3136 26.8678C11.5499 27.1751 11.976 27.36 12.452 27.3684C12.928 27.3769 13.3661 27.1976 13.6136 26.8924C14.0818 26.3124 14.4278 25.6338 14.7463 24.9553C14.7294 25.3983 14.7505 25.8469 14.9017 26.2273C15.0374 26.5697 15.261 26.7968 15.5493 26.884C15.8558 26.9775 16.2151 26.8988 16.5611 26.6625C18.1199 25.5959 19.1858 23.0358 20.0422 20.9777C20.1639 20.6852 20.2806 20.404 20.3938 20.141C20.6057 20.8993 20.9004 21.6319 21.2727 22.3256C21.3557 22.4761 21.3486 22.5422 21.2361 22.6659C21.0667 22.8516 20.8304 23.0759 20.5801 23.3135C19.8222 24.0328 18.8786 24.9307 18.752 25.7203C18.7028 26.0367 18.9208 26.325 19.259 26.3904C20.2764 26.5929 21.5019 26.2969 22.5383 25.5994C23.4805 24.9666 23.8349 24.0842 23.593 22.9845C23.3589 21.9256 23.8933 20.6107 25.1814 19.0737C25.3923 19.9547 25.6736 20.667 26.0617 21.2906L26.0511 21.2991C25.1132 22.1182 23.8279 23.2397 24.0275 24.6002C24.0443 24.7296 24.0878 24.8541 24.1554 24.9657C24.2229 25.0774 24.313 25.1737 24.4199 25.2485C24.5341 25.3256 24.663 25.3783 24.7985 25.4032C24.934 25.4282 25.0732 25.4248 25.2074 25.3934C26.4358 25.1353 27.3604 24.6157 28.0325 23.8064C28.7047 22.9971 28.4593 22.0999 28.2329 21.4038C29.9908 20.9271 31.5559 20.9391 33.0212 21.439C33.8439 21.7202 34.4338 22.1822 34.7741 22.8199C35.2023 23.6222 34.971 24.3626 34.1209 24.9047C33.8601 25.0713 33.7342 25.1733 33.7265 25.302C33.7247 25.3318 33.7302 25.3617 33.7425 25.389C33.7547 25.4162 33.7733 25.4402 33.7968 25.4588C33.8952 25.5396 34.199 25.6802 34.8859 25.2478C35.5187 24.8506 35.89 24.3099 35.9849 23.6306C36.004 23.4434 36.0038 23.2546 35.9842 23.0674ZM7.87817 24.8295L7.87114 24.9195C7.76145 25.9488 7.23833 26.846 6.31372 27.5913C5.73294 28.0596 5.10224 28.3472 4.53833 28.402C4.14458 28.44 3.85841 28.3866 3.68825 28.2424C3.56099 28.1349 3.49278 27.9738 3.47731 27.7502C3.362 25.9587 6.17169 24.1784 7.75302 23.5927C7.86587 23.9946 7.90822 24.4131 7.87817 24.8295ZM15.0747 19.7768C14.8145 21.2597 14.0558 24.0588 12.8633 25.1452C12.8064 25.1972 12.7586 25.2155 12.7368 25.2106C12.715 25.2056 12.6981 25.1796 12.6805 25.1402C12.2825 24.2177 12.4295 22.6596 13.0321 21.4355C13.4954 20.4919 14.1571 19.8668 14.8968 19.6777C14.9275 19.6692 14.9591 19.6647 14.991 19.6643C15.0159 19.6626 15.0407 19.6692 15.0613 19.6833C15.07 19.6971 15.0757 19.7125 15.078 19.7286C15.0803 19.7447 15.0792 19.7612 15.0747 19.7768ZM20.945 25.1824C20.7208 25.4166 20.4135 25.3849 20.4859 25.2992L21.6278 24.087C21.5357 24.5039 21.2636 24.8492 20.945 25.1824ZM25.682 24.1341C25.5734 24.1876 25.4559 24.2207 25.3354 24.2318C25.303 23.5941 25.9211 22.8762 26.5307 22.3974C26.6945 23.0625 26.3591 23.7656 25.682 24.1341Z" fill="black"/>
</g>
<defs>
<clipPath id="clip0_445_1405">
<rect width="36" height="36" fill="white"/>
</clipPath>
</defs>
</svg>
