<svg width="29" height="28" viewBox="0 0 29 28" fill="none" xmlns="http://www.w3.org/2000/svg">
<g clip-path="url(#clip0_445_1423)">
<mask id="mask0_445_1423" style="mask-type:alpha" maskUnits="userSpaceOnUse" x="0" y="0" width="29" height="28">
<path d="M20.278 27.8462C20.7173 28.0187 21.2183 28.0076 21.6617 27.7926L27.404 25.0078C28.0073 24.7152 28.3911 24.0996 28.3911 23.4244V4.5414C28.3911 3.86618 28.0073 3.2507 27.404 2.95806L21.6617 0.173128C21.0798 -0.10907 20.3987 -0.0399491 19.8881 0.334256C19.8151 0.387713 19.7456 0.447397 19.6804 0.513172L8.68744 10.6212L3.89913 6.95789C3.45339 6.61687 2.82992 6.64481 2.41593 7.02435L0.880163 8.43236C0.373779 8.89662 0.373198 9.69955 0.878909 10.1646L5.03149 13.9828L0.878909 17.8012C0.373198 18.2662 0.373779 19.0691 0.880163 19.5334L2.41593 20.9413C2.82992 21.3209 3.45339 21.3488 3.89913 21.0079L8.68744 17.3445L19.6804 27.4526C19.8543 27.6279 20.0585 27.76 20.278 27.8462ZM21.4225 7.60143L13.0814 13.9828L21.4225 20.3643V7.60143Z" fill="white"/>
</mask>
<g mask="url(#mask0_445_1423)">
<path d="M27.421 2.96241L21.6742 0.173643C21.0091 -0.149156 20.2141 -0.012992 19.692 0.51316L0.879139 17.8012C0.373121 18.2662 0.373702 19.0691 0.880394 19.5334L2.41709 20.9413C2.83134 21.3209 3.45519 21.3488 3.9012 21.0079L26.5563 3.68589C27.3163 3.10476 28.408 3.65112 28.408 4.61264V4.54539C28.408 3.87046 28.0244 3.2552 27.421 2.96241Z" fill="#0065A9"/>
<path d="M27.421 25.0033L21.6742 27.7921C21.0091 28.1148 20.2141 27.9787 19.692 27.4526L0.879139 10.1645C0.373121 9.69954 0.373702 8.89659 0.880394 8.43234L2.41709 7.02434C2.83134 6.64479 3.45519 6.61684 3.9012 6.95787L26.5563 24.2798C27.3163 24.8609 28.408 24.3146 28.408 23.353V23.4203C28.408 24.0952 28.0244 24.7105 27.421 25.0033Z" fill="#007ACC"/>
<path d="M21.6563 27.7943C20.9909 28.1168 20.1959 27.9805 19.6738 27.4543C20.3171 28.1026 21.417 27.6434 21.417 26.7265V1.24262C21.417 0.325723 20.3171 -0.133463 19.6738 0.514881C20.1959 -0.0113202 20.9909 -0.147676 21.6563 0.174838L27.402 2.95977C28.0058 3.25241 28.3898 3.86789 28.3898 4.54312V23.4261C28.3898 24.1014 28.0058 24.7168 27.402 25.0095L21.6563 27.7943Z" fill="#1F9CF0"/>
<path d="M20.2781 27.8461C20.7173 28.0185 21.2183 28.0075 21.6616 27.7925L27.4039 25.0076C28.0074 24.715 28.3911 24.0995 28.3911 23.4243V4.54128C28.3911 3.86605 28.0074 3.25057 27.404 2.95793L21.6616 0.173007C21.0798 -0.109192 20.3988 -0.0400713 19.888 0.334134C19.8151 0.38759 19.7456 0.447275 19.6804 0.513049L8.68743 10.6211L3.89913 6.95776C3.4534 6.61675 2.82991 6.64469 2.41592 7.02423L0.880163 8.43223C0.373779 8.8965 0.373198 9.69943 0.878909 10.1644L5.03149 13.9827L0.878909 17.8011C0.373198 18.2661 0.373779 19.069 0.880163 19.5333L2.41592 20.9412C2.82991 21.3208 3.4534 21.3487 3.89913 21.0078L8.68743 17.3444L19.6804 27.4525C19.8542 27.6278 20.0585 27.7599 20.2781 27.8461ZM21.4226 7.6013L13.0814 13.9827L21.4226 20.3642V7.6013Z" fill="url(#paint0_linear_445_1423)" fill-opacity="0.25"/>
</g>
</g>
<defs>
<linearGradient id="paint0_linear_445_1423" x1="14.4456" y1="-0.00012218" x2="14.4456" y2="27.9656" gradientUnits="userSpaceOnUse">
<stop stop-color="white"/>
<stop offset="1" stop-color="white" stop-opacity="0"/>
</linearGradient>
<clipPath id="clip0_445_1423">
<rect width="28" height="28" fill="white" transform="translate(0.5)"/>
</clipPath>
</defs>
</svg>
